<svg width="374" height="333" viewBox="0 0 374 333" fill="none" xmlns="http://www.w3.org/2000/svg">
<path d="M297.274 59.2506C207.565 28.5595 113.233 46.3455 76.5763 59.2951C76.1869 59.4327 75.7864 59.4407 75.3885 59.3301L72.7277 58.591C70.8813 58.0781 70.7481 55.5219 72.5357 54.8313C128.158 33.3443 173.658 24.8899 187.301 24.0124C187.442 24.0033 187.57 24.0106 187.71 24.0322C230.189 30.5704 277.527 47.6574 298.403 56.3976C299.532 56.8701 299.654 58.3971 298.636 59.0758C298.235 59.3431 297.73 59.4066 297.274 59.2506Z" fill="#eecd95"/>
<path d="M130.915 283L102 264V77.7746C102 56 113.437 56 151.355 56L151.355 56C181.765 56 180.768 56 185.255 63.6211C189.243 56 189.243 56 221.648 56H221.648C272 58.7218 272 51.5 272 85.94L270 264L240.592 283V81.7746C240.592 79.5655 238.804 77.7746 236.595 77.7746H221.648H205.703C203.494 77.7746 201.707 79.5654 201.707 81.7746V283H172.792L169.369 81.7066C169.332 79.5243 167.559 77.7746 165.376 77.7746H151.355H134.906C132.697 77.7746 130.915 79.5654 130.915 81.7746V283Z" fill="#eecd95"/>
<path fill-rule="evenodd" clip-rule="evenodd" d="M59 109C72.8071 109 83.5 98.8071 83.5 85C83.5 71.1929 72.8071 59.5 59 59.5C45.1929 59.5 35 71.1929 35 85C35 98.8071 45.1929 109 59 109ZM55.5 119C74.2777 119 89.5 103.778 89.5 85C89.5 66.2223 74.2777 51 55.5 51C36.7223 51 21.5 66.2223 21.5 85C21.5 103.778 36.7223 119 55.5 119Z" fill="#eecd95"/>
<path fill-rule="evenodd" clip-rule="evenodd" d="M310.5 109C296.693 109 286 98.8071 286 85C286 71.1929 296.693 59.5 310.5 59.5C324.307 59.5 334.5 71.1929 334.5 85C334.5 98.8071 324.307 109 310.5 109ZM314 119C295.222 119 280 103.778 280 85C280 66.2223 295.222 51 314 51C332.778 51 348 66.2223 348 85C348 103.778 332.778 119 314 119Z" fill="#eecd95"/>
<path d="M363 192C363 194.667 354.074 208 331.252 208C308.43 208 299 192 299 192C299 192 308.43 192 331.252 192C354.074 192 363 192 363 192Z" fill="#eecd95"/>
<path d="M373.632 185.327C373.874 185.769 374.003 186.264 373.991 186.767C373.778 195.852 369.755 203.626 361.908 210.102C353.842 216.76 342.901 220.5 331.494 220.5C320.086 220.5 309.146 216.76 301.08 210.102C293.237 203.629 289.226 195.86 289.009 186.78C288.997 186.269 289.131 185.765 289.38 185.319L330 112.5L333 114.5L292.89 185.312C292.634 185.763 292.496 186.273 292.513 186.791C292.765 194.216 296.565 200.422 303 205.733C309.662 211.231 322.072 214.321 331.494 214.321C340.916 214.321 353.838 211.231 360.5 205.733C366.942 200.416 370.236 194.67 370.447 187.267C370.461 186.764 370.331 186.269 370.09 185.827L330 112.5L330.703 111.445C330.889 111.167 331.201 111 331.535 111H332.407C332.773 111 333.109 111.2 333.284 111.52L373.632 185.327Z" fill="#eecd95"/>
<path d="M74 192C74 194.667 65.0739 208 42.252 208C19.43 208 10 192 10 192C10 192 19.43 192 42.252 192C65.0739 192 74 192 74 192Z" fill="#eecd95"/>
<path d="M84.6323 185.327C84.8736 185.769 85.0028 186.264 84.991 186.767C84.7775 195.852 80.7545 203.626 72.9081 210.102C64.8418 216.76 53.9015 220.5 42.494 220.5C31.0865 220.5 20.1462 216.76 12.0799 210.102C4.23735 203.629 0.225836 195.86 0.00926992 186.78C-0.0029296 186.269 0.130829 185.765 0.380054 185.319L41 112.5L44 114.5L3.88967 185.312C3.63425 185.763 3.49579 186.273 3.51334 186.791C3.76498 194.216 7.56492 200.422 14 205.733C20.6622 211.231 33.0722 214.321 42.494 214.321C51.9158 214.321 64.8378 211.231 71.5 205.733C77.9416 200.416 81.2358 194.67 81.447 187.267C81.4613 186.764 81.3314 186.269 81.0901 185.827L41 112.5L41.7031 111.445C41.8886 111.167 42.2008 111 42.5352 111H43.407C43.7726 111 44.1091 111.2 44.2844 111.52L84.6323 185.327Z" fill="#eecd95"/>
<path d="M82.2974 26.0076L29 28L37.2567 31.4166C41.3786 33.1222 45.7958 34 50.2567 34H72.7374C72.9117 34 73.0853 33.9772 73.2537 33.9322L188.486 3.1374C188.823 3.04737 189.177 3.04699 189.514 3.13631L305.748 33.9333C305.915 33.9776 306.088 34 306.26 34H342.558C343.419 34 344.184 33.4491 344.456 32.6325L345.067 30.7998C345.281 30.1571 344.807 29.4918 344.13 29.4837L303.737 29.0028C303.58 29.0009 303.423 28.9804 303.27 28.9417L189.482 0.122122C189.166 0.0419288 188.834 0.0405023 188.517 0.117966L82.697 25.9519C82.566 25.9839 82.4321 26.0025 82.2974 26.0076Z" fill="#eecd95"/>
<path d="M80.5973 45.659L73 42.9999C104 33.8333 168.4 14.8999 178 12.4999C187.6 10.0999 199.667 12.1666 204.5 13.4999L306.5 39.4999L301.15 42.8437C299.529 43.857 297.471 43.857 295.85 42.8437L291.716 40.26C290.921 39.7633 290.003 39.4999 289.066 39.4999H279.355C279.119 39.4999 278.882 39.4832 278.648 39.4497L265.87 37.6243C265.294 37.542 264.738 37.36 264.224 37.0863L258.603 34.0882C257.879 33.702 257.071 33.4999 256.25 33.4999H255.116C254.707 33.4999 254.299 33.4498 253.903 33.3507L240.5 29.9999L235.405 29.1508C234.807 29.0511 234.231 28.8433 233.708 28.5377L229.115 25.859C228.707 25.6208 228.267 25.4418 227.809 25.3271L222.5 23.9999L212.087 22.3339C210.827 22.1323 209.818 21.182 209.541 19.9365C209.225 18.5128 207.962 17.4999 206.504 17.4999H205.405C204.808 17.4999 204.22 17.3745 203.658 17.1713C195.957 14.386 183.463 15.5359 178 16.4999L110.147 36.1676C109.41 36.3812 108.781 36.8656 108.386 37.5236C107.836 38.4395 106.846 38.9999 105.778 38.9999H98.2518C97.7534 38.9999 97.2578 39.0745 96.7814 39.221L85.7064 42.6287C84.9412 42.8642 84.3182 43.4242 84.0028 44.1601C83.4382 45.4774 81.95 46.1324 80.5973 45.659Z" fill="#eecd95"/>
<path d="M30 325.642C82 301.142 233.9 272.942 349.5 332.142C276.5 316.642 133 306.142 30 325.642Z" fill="#eecd95"/>
</svg>